# xmcd
#
# Track frame offsets:
#	152
#	14594
#	28507
#	43536
#	61988
#	75066
#	92423
#	102955
#	115934
#	128149
#	142790
#	156448
#	174480
#	183785
#	196853
#	207589
#
# Disc length: 2912 seconds
#
# Revision: 1
# Processed by: cddbd v1.5.2PL0 Copyright (c) Steve Scherf et al.
# Submitted via: EasyCDDAExtractor 4.6.0.1
#
DISCID=c50b5e10
DTITLE=Woody Wills - We Could Be Dancing
DYEAR=1995
DGENRE=Country
TTITLE0=We Could Be Dancing
TTITLE1=A Day Over Lovin' You
TTITLE2=Friendly Fire
TTITLE3=I Couldn't Care Less
TTITLE4=When We Say Love
TTITLE5=Mama Did Raise One Fool
TTITLE6=Sad and Broken Hearted Blues
TTITLE7=Die With My Boots On
TTITLE8=Red Hot Memory
TTITLE9=Two Will Be One
TTITLE10=Pride Gets In The Way
TTITLE11=The Neverlasting Kind
TTITLE12=Share All My Memories
TTITLE13=Two Wrongs Just Don't Make It Right
TTITLE14=Waltzing Margarita
TTITLE15=Lookin' Lucky
EXTD=
EXTT0=
EXTT1=
EXTT2=
EXTT3=
EXTT4=
EXTT5=
EXTT6=
EXTT7=
EXTT8=
EXTT9=
EXTT10=
EXTT11=
EXTT12=
EXTT13=
EXTT14=
EXTT15=
PLAYORDER=
